<svg width="1280" height="720" viewBox="0 0 1280 720" fill="none" xmlns="http://www.w3.org/2000/svg">
  <rect width="1280" height="720" rx="0" fill="#101313"/>
  <rect x="60" y="56" width="1160" height="608" rx="18" fill="#171B1A" stroke="#2E3834"/>
  <rect x="60" y="56" width="228" height="608" rx="18" fill="#111514"/>
  <rect x="86" y="102" width="176" height="42" rx="8" fill="#22352F"/>
  <rect x="86" y="158" width="176" height="42" rx="8" fill="#181F1E"/>
  <rect x="86" y="214" width="176" height="42" rx="8" fill="#181F1E"/>
  <text x="322" y="132" fill="#F4FAF7" font-family="Inter, -apple-system, BlinkMacSystemFont, sans-serif" font-size="56" font-weight="800">SlamDih</text>
  <text x="326" y="168" fill="#96A39D" font-family="Inter, -apple-system, BlinkMacSystemFont, sans-serif" font-size="20" font-weight="600">MacBook impact detector</text>
  <rect x="998" y="104" width="158" height="38" rx="19" fill="#D7FBE8"/>
  <circle cx="1022" cy="123" r="5" fill="#18A665"/>
  <text x="1038" y="130" fill="#15231D" font-family="Inter, -apple-system, BlinkMacSystemFont, sans-serif" font-size="16" font-weight="700">Listening</text>
  <g>
    <rect x="322" y="216" width="198" height="132" rx="8" fill="#202724" stroke="#34403B"/>
    <text x="346" y="269" fill="#F4FAF7" font-family="Inter, -apple-system, BlinkMacSystemFont, sans-serif" font-size="52" font-weight="800">12</text>
    <text x="348" y="312" fill="#91A09A" font-family="Inter, -apple-system, BlinkMacSystemFont, sans-serif" font-size="15" font-weight="700">SLAPS</text>
    <rect x="538" y="216" width="198" height="132" rx="8" fill="#202724" stroke="#34403B"/>
    <text x="562" y="269" fill="#F4FAF7" font-family="Inter, -apple-system, BlinkMacSystemFont, sans-serif" font-size="52" font-weight="800">0.92</text>
    <text x="564" y="312" fill="#91A09A" font-family="Inter, -apple-system, BlinkMacSystemFont, sans-serif" font-size="15" font-weight="700">IMPACT</text>
    <rect x="754" y="216" width="198" height="132" rx="8" fill="#202724" stroke="#34403B"/>
    <text x="778" y="269" fill="#F4FAF7" font-family="Inter, -apple-system, BlinkMacSystemFont, sans-serif" font-size="52" font-weight="800">1.34</text>
    <text x="780" y="312" fill="#91A09A" font-family="Inter, -apple-system, BlinkMacSystemFont, sans-serif" font-size="15" font-weight="700">PEAK</text>
    <rect x="970" y="216" width="186" height="132" rx="8" fill="#202724" stroke="#34403B"/>
    <text x="994" y="269" fill="#F4FAF7" font-family="Inter, -apple-system, BlinkMacSystemFont, sans-serif" font-size="52" font-weight="800">100</text>
    <text x="996" y="312" fill="#91A09A" font-family="Inter, -apple-system, BlinkMacSystemFont, sans-serif" font-size="15" font-weight="700">HZ</text>
  </g>
  <rect x="322" y="374" width="404" height="220" rx="8" fill="#202724" stroke="#34403B"/>
  <text x="348" y="418" fill="#F4FAF7" font-family="Inter, -apple-system, BlinkMacSystemFont, sans-serif" font-size="24" font-weight="800">Sensor Values</text>
  <g stroke-linecap="round" stroke-width="12">
    <line x1="360" y1="462" x2="672" y2="462" stroke="#313D38"/>
    <line x1="360" y1="462" x2="546" y2="462" stroke="#F87171"/>
    <line x1="360" y1="510" x2="672" y2="510" stroke="#313D38"/>
    <line x1="360" y1="510" x2="616" y2="510" stroke="#4ADE80"/>
    <line x1="360" y1="558" x2="672" y2="558" stroke="#313D38"/>
    <line x1="360" y1="558" x2="502" y2="558" stroke="#60A5FA"/>
  </g>
  <rect x="752" y="374" width="404" height="220" rx="8" fill="#202724" stroke="#34403B"/>
  <text x="778" y="418" fill="#F4FAF7" font-family="Inter, -apple-system, BlinkMacSystemFont, sans-serif" font-size="24" font-weight="800">Controls</text>
  <rect x="778" y="462" width="244" height="12" rx="6" fill="#313D38"/>
  <rect x="778" y="462" width="132" height="12" rx="6" fill="#6EE7B7"/>
  <rect x="778" y="510" width="104" height="44" rx="8" fill="#34D399"/>
  <rect x="894" y="510" width="64" height="44" rx="8" fill="#303B37"/>
  <rect x="970" y="510" width="64" height="44" rx="8" fill="#303B37"/>
</svg>
